<svg width="14" height="14" viewBox="0 0 14 14" fill="none" xmlns="http://www.w3.org/2000/svg">
<path d="M11.6667 2.33325C11.9888 2.33325 12.25 2.59442 12.25 2.91659C12.25 3.23875 11.9888 3.49992 11.6667 3.49992H2.33333C2.01117 3.49992 1.75 3.23875 1.75 2.91659C1.75 2.59442 2.01117 2.33325 2.33333 2.33325H11.6667Z" fill="#202020"/>
<path d="M11.6667 6.41675C11.9888 6.41675 12.25 6.67792 12.25 7.00008C12.25 7.32225 11.9888 7.58341 11.6667 7.58341H2.33333C2.01117 7.58341 1.75 7.32225 1.75 7.00008C1.75 6.67792 2.01117 6.41675 2.33333 6.41675H11.6667Z" fill="#202020"/>
<path d="M11.6667 10.5C11.9888 10.5 12.25 10.7612 12.25 11.0833C12.25 11.4055 11.9888 11.6667 11.6667 11.6667H2.33333C2.01117 11.6667 1.75 11.4055 1.75 11.0833C1.75 10.7612 2.01117 10.5 2.33333 10.5H11.6667Z" fill="#202020"/>
</svg>
