<svg width="28" height="28" viewBox="0 0 28 28" fill="none" xmlns="http://www.w3.org/2000/svg">
<path d="M1.1665 20.9999V5.83325C1.1665 4.90499 1.53552 4.01502 2.19189 3.35864C2.84827 2.70227 3.73825 2.33325 4.6665 2.33325H9.25114L9.46875 2.34009C9.97289 2.3715 10.465 2.5121 10.9111 2.75252C11.4212 3.0274 11.856 3.42392 12.1746 3.9078H12.1735L13.1123 5.29663L13.1191 5.30802C13.2264 5.47099 13.373 5.60481 13.5452 5.69653C13.7173 5.78817 13.9097 5.83509 14.1047 5.83325H23.3332C24.2614 5.83325 25.1514 6.20227 25.8078 6.85864C26.4642 7.51502 26.8332 8.40499 26.8332 9.33325V20.9999C26.8332 21.9282 26.4642 22.8182 25.8078 23.4745C25.1514 24.1309 24.2614 24.4999 23.3332 24.4999H4.6665C3.73825 24.4999 2.84827 24.1309 2.19189 23.4745C1.53552 22.8181 1.1665 21.9282 1.1665 20.9999ZM3.49984 20.9999C3.49984 21.3093 3.62284 21.606 3.84163 21.8248C4.06043 22.0436 4.35709 22.1666 4.6665 22.1666H23.3332C23.6426 22.1666 23.9392 22.0436 24.158 21.8248C24.3768 21.606 24.4998 21.3093 24.4998 20.9999V9.33325C24.4998 9.02383 24.3768 8.72717 24.158 8.50838C23.9665 8.31688 23.7154 8.19875 23.4482 8.17228L23.3332 8.16658H14.116V8.16545C13.5348 8.16917 12.9613 8.02972 12.4481 7.75643C11.9353 7.48331 11.499 7.08625 11.1777 6.60229L10.2332 5.20321L10.2253 5.19181C10.1191 5.03063 9.97471 4.89835 9.80485 4.80672C9.67748 4.73808 9.53858 4.69355 9.39583 4.6757L9.25114 4.66659H4.6665C4.35708 4.66659 4.06043 4.78959 3.84163 5.00838C3.62284 5.22717 3.49984 5.52383 3.49984 5.83325V20.9999Z" fill="#00A0D9"/>
</svg>
