<svg width="14" height="14" viewBox="0 0 14 14" fill="none" xmlns="http://www.w3.org/2000/svg">
<path d="M1.1665 7.00008C1.1665 5.45299 1.78096 3.96912 2.87492 2.87516C3.96888 1.7812 5.45274 1.16675 6.99984 1.16675H7.00212L7.30461 1.17529C8.71244 1.24857 10.0549 1.79433 11.1145 2.7242L11.3441 2.93612L12.6623 4.25431C12.8901 4.48212 12.8901 4.85138 12.6623 5.07918C12.4345 5.30699 12.0652 5.30699 11.8374 5.07918L10.526 3.76782L10.3449 3.60091C9.42098 2.79017 8.23281 2.33818 6.99813 2.33341C5.76107 2.33387 4.57456 2.82527 3.69979 3.70003C2.82462 4.5752 2.33317 5.7624 2.33317 7.00008C2.33317 7.32225 2.072 7.58341 1.74984 7.58341C1.42767 7.58341 1.1665 7.32225 1.1665 7.00008Z" fill="#202020"/>
<path d="M11.6667 1.75008C11.6667 1.42792 11.9278 1.16675 12.25 1.16675C12.5722 1.16675 12.8333 1.42792 12.8333 1.75008V4.66675C12.8333 4.98891 12.5722 5.25008 12.25 5.25008H9.33333C9.01117 5.25008 8.75 4.98891 8.75 4.66675C8.75 4.34458 9.01117 4.08342 9.33333 4.08342H11.6667V1.75008Z" fill="#202020"/>
<path d="M11.6665 7.00008C11.6665 6.67792 11.9276 6.41675 12.2498 6.41675C12.572 6.41675 12.8331 6.67792 12.8331 7.00008C12.8331 8.54718 12.2187 10.031 11.1247 11.125C10.0307 12.219 8.54689 12.8334 6.99979 12.8334H6.99751C5.48035 12.8277 4.02037 12.2722 2.88513 11.276L2.65555 11.064L1.33736 9.74585C1.10955 9.51804 1.10955 9.14879 1.33736 8.92098C1.56516 8.69317 1.93442 8.69317 2.16223 8.92098L3.47359 10.2323L3.65474 10.3993C4.57851 11.2099 5.76646 11.6613 7.00093 11.6662C8.2382 11.6659 9.42494 11.175 10.2998 10.3001C11.175 9.42496 11.6665 8.23776 11.6665 7.00008Z" fill="#202020"/>
<path d="M1.1665 12.25V9.33333C1.1665 9.01117 1.42767 8.75 1.74984 8.75H4.6665C4.98867 8.75 5.24984 9.01117 5.24984 9.33333C5.24984 9.6555 4.98867 9.91667 4.6665 9.91667H2.33317V12.25C2.33317 12.5722 2.072 12.8333 1.74984 12.8333C1.42767 12.8333 1.1665 12.5722 1.1665 12.25Z" fill="#202020"/>
</svg>
