<svg width="14" height="14" viewBox="0 0 14 14" fill="none" xmlns="http://www.w3.org/2000/svg">
<path d="M0.583496 10.5001V2.91675C0.583496 2.45262 0.768003 2.00763 1.09619 1.67944C1.42438 1.35125 1.86937 1.16675 2.3335 1.16675H4.62581L4.73462 1.17017C4.98669 1.18587 5.23272 1.25617 5.45581 1.37638C5.71083 1.51382 5.92822 1.71208 6.08756 1.95402H6.087L6.5564 2.64844L6.55981 2.65413C6.61347 2.73562 6.68675 2.80253 6.77287 2.84839C6.85892 2.89421 6.95509 2.91767 7.05257 2.91675H11.6668C12.131 2.91675 12.5759 3.10125 12.9041 3.42944C13.2323 3.75763 13.4168 4.20262 13.4168 4.66675V10.5001C13.4168 10.9642 13.2323 11.4092 12.9041 11.7374C12.5759 12.0656 12.131 12.2501 11.6668 12.2501H2.3335C1.86937 12.2501 1.42438 12.0656 1.09619 11.7374C0.768003 11.4092 0.583496 10.9642 0.583496 10.5001ZM1.75016 10.5001C1.75016 10.6548 1.81166 10.8031 1.92106 10.9125C2.03046 11.0219 2.17879 11.0834 2.3335 11.0834H11.6668C11.8215 11.0834 11.9699 11.0219 12.0793 10.9125C12.1887 10.8031 12.2502 10.6548 12.2502 10.5001V4.66675C12.2502 4.51204 12.1887 4.36371 12.0793 4.25431C11.9835 4.15856 11.8579 4.0995 11.7244 4.08626L11.6668 4.08341H7.05827V4.08284C6.76763 4.08471 6.48088 4.01498 6.22428 3.87834C5.96788 3.74178 5.74974 3.54324 5.58911 3.30127L5.11686 2.60173L5.11287 2.59603C5.0598 2.51544 4.9876 2.44929 4.90267 2.40348C4.83898 2.36916 4.76953 2.34689 4.69816 2.33797L4.62581 2.33341H2.3335C2.17879 2.33341 2.03046 2.39492 1.92106 2.50431C1.81167 2.61371 1.75016 2.76204 1.75016 2.91675V10.5001Z" fill="#00A0D9"/>
</svg>
