<svg width="14" height="14" viewBox="0 0 14 14" fill="none" xmlns="http://www.w3.org/2000/svg">
<path d="M9.30562 9.30586C9.53343 9.07806 9.90268 9.07806 10.1305 9.30586L12.6621 11.8374C12.8899 12.0652 12.8899 12.4345 12.6621 12.6623C12.4343 12.8901 12.065 12.8901 11.8372 12.6623L9.30562 10.1307C9.07781 9.90293 9.07781 9.53367 9.30562 9.30586Z" fill="#626262"/>
<path d="M10.4998 6.41675C10.4998 4.16159 8.67167 2.33341 6.4165 2.33341C4.16134 2.33341 2.33317 4.16159 2.33317 6.41675C2.33317 8.67191 4.16134 10.5001 6.4165 10.5001C8.67167 10.5001 10.4998 8.67191 10.4998 6.41675ZM11.6665 6.41675C11.6665 9.31624 9.316 11.6667 6.4165 11.6667C3.51701 11.6667 1.1665 9.31624 1.1665 6.41675C1.1665 3.51725 3.51701 1.16675 6.4165 1.16675C9.316 1.16675 11.6665 3.51725 11.6665 6.41675Z" fill="#626262"/>
</svg>
