<svg width="42" height="42" viewBox="0 0 42 42" fill="none" xmlns="http://www.w3.org/2000/svg">
<path d="M5.25049 35.0002V7.00024C5.25049 5.60786 5.80401 4.2729 6.78857 3.28833C7.77314 2.30377 9.1081 1.75024 10.5005 1.75024H24.5005V1.75195C25.2843 1.75106 26.0612 1.90309 26.7854 2.20312C27.5093 2.50313 28.1666 2.94371 28.72 3.49854L34.9954 9.77393L35.1987 9.98584C35.6608 10.493 36.0323 11.0769 36.2959 11.7119C36.5968 12.437 36.7514 13.2152 36.7505 14.0002V35.0002C36.7505 36.3926 36.197 37.7276 35.2124 38.7122C34.2278 39.6967 32.8929 40.2502 31.5005 40.2502H10.5005C9.1081 40.2502 7.77314 39.6967 6.78857 38.7122C5.80401 37.7276 5.25049 36.3926 5.25049 35.0002ZM8.75049 35.0002C8.75049 35.4644 8.935 35.9094 9.26318 36.2375C9.59137 36.5657 10.0364 36.7502 10.5005 36.7502H31.5005C31.9646 36.7502 32.4096 36.5657 32.7378 36.2375C33.066 35.9094 33.2505 35.4644 33.2505 35.0002V13.9968L33.2385 13.7559C33.2151 13.5154 33.157 13.2791 33.0642 13.0552C32.9402 12.7563 32.7571 12.4835 32.5276 12.2554L26.2437 5.97144C26.0156 5.7426 25.744 5.56021 25.4456 5.43652C25.1472 5.31291 24.8269 5.2498 24.5039 5.25024H10.5005C10.0364 5.25024 9.59137 5.43475 9.26318 5.76294C8.935 6.09113 8.75049 6.53612 8.75049 7.00024V35.0002Z" fill="#8C8C8C"/>
<path d="M22.7495 12.2502V3.50024C22.7495 2.53375 23.533 1.75024 24.4995 1.75024C25.466 1.75024 26.2495 2.53375 26.2495 3.50024V12.2502H34.9995C35.966 12.2502 36.7495 13.0337 36.7495 14.0002C36.7495 14.9667 35.966 15.7502 34.9995 15.7502H26.2495C25.3213 15.7502 24.4313 15.3812 23.7749 14.7249C23.1185 14.0685 22.7495 13.1785 22.7495 12.2502Z" fill="#8C8C8C"/>
<path d="M17.4995 14C18.466 14 19.2495 14.7835 19.2495 15.75C19.2495 16.7165 18.466 17.5 17.4995 17.5H13.9995C13.033 17.5 12.2495 16.7165 12.2495 15.75C12.2495 14.7835 13.033 14 13.9995 14H17.4995Z" fill="#8C8C8C"/>
<path d="M27.9995 20.9998C28.966 20.9998 29.7495 21.7833 29.7495 22.7498C29.7495 23.7163 28.966 24.4998 27.9995 24.4998H13.9995C13.033 24.4998 12.2495 23.7163 12.2495 22.7498C12.2495 21.7833 13.033 20.9998 13.9995 20.9998H27.9995Z" fill="#8C8C8C"/>
<path d="M27.9995 28.0002C28.966 28.0002 29.7495 28.7837 29.7495 29.7502C29.7495 30.7167 28.966 31.5002 27.9995 31.5002H13.9995C13.033 31.5002 12.2495 30.7167 12.2495 29.7502C12.2495 28.7837 13.033 28.0002 13.9995 28.0002H27.9995Z" fill="#8C8C8C"/>
</svg>
